<?xml version="1.0" encoding="UTF-8" standalone="no"?>
<!DOCTYPE svg PUBLIC "-//W3C//DTD SVG 1.1//EN" "http://www.w3.org/Graphics/SVG/1.1/DTD/svg11.dtd">
<svg xmlns="http://www.w3.org/2000/svg" version="1.1" viewBox="0.00 0.00 512.00 512.00">
<g stroke-width="2.00" fill="none" stroke-linecap="butt">
<path stroke="#114ae1" vector-effect="non-scaling-stroke" d="
  M 246.54 351.47
  C 245.13 329.84 241.48 310.63 236.55 289.21
  Q 227.22 248.66 217.75 208.16
  Q 212.74 186.69 205.58 171.79"
/>
<path stroke="#114ae1" vector-effect="non-scaling-stroke" d="
  M 309.01 436.86
  L 323.52 497.13"
/>
<path stroke="#183dd2" vector-effect="non-scaling-stroke" d="
  M 140.81 472.16
  Q 136.28 445.73 130.16 419.62
  Q 120.55 378.57 111.65 336.80"
/>
</g>
<path fill="#0c52e9" d="
  M 330.14 85.01
  Q 326.90 96.47 324.62 101.91
  C 320.21 112.41 312.07 122.98 302.48 130.01
  Q 297.12 133.93 294.52 136.03
  Q 292.85 137.39 290.75 138.23
  C 285.87 140.20 282.84 141.02 278.20 142.66
  Q 274.09 144.12 270.49 144.17
  Q 255.85 144.41 248.75 144.32
  C 243.84 144.26 239.35 143.67 234.34 141.71
  Q 228.29 139.35 221.88 135.87
  C 215.57 132.45 209.20 124.78 206.25 122.06
  Q 201.03 117.24 197.83 112.41
  Q 192.28 104.03 190.89 100.59
  Q 190.41 99.39 188.25 90.90
  Q 187.01 86.04 187.01 80.98
  Q 187.01 62.21 187.26 59.29
  Q 187.55 55.91 190.77 45.28
  Q 191.64 42.40 196.20 34.58
  Q 198.40 30.83 203.99 25.53
  C 207.25 22.43 214.82 13.46 221.93 9.44
  Q 228.64 5.65 237.08 2.59
  Q 239.61 1.68 242.44 1.46
  Q 259.58 0.16 275.30 1.65
  A 16.13 16.03 -30.4 0 1 280.14 2.89
  C 285.32 5.10 289.89 6.29 294.10 8.96
  Q 301.91 13.93 304.28 16.28
  C 310.86 22.82 314.38 25.53 317.42 31.11
  C 319.33 34.59 321.35 37.28 322.53 39.98
  Q 326.77 49.60 328.71 55.02
  C 329.89 58.31 330.47 61.54 330.47 65.74
  Q 330.47 77.84 330.35 83.56
  A 5.66 5.59 53.6 0 1 330.14 85.01
  Z"
/>
<path fill="#1b37cc" d="
  M 88.22 172.11
  C 74.76 167.60 62.42 161.44 55.76 148.13
  Q 52.59 141.79 52.56 141.70
  Q 48.58 132.25 48.43 129.53
  Q 47.86 119.08 48.52 116.26
  Q 50.52 107.71 51.68 103.93
  Q 52.35 101.75 55.40 96.61
  Q 56.90 94.07 60.64 90.33
  C 68.75 82.20 75.85 75.23 86.21 73.15
  C 91.31 72.13 97.93 72.85 102.33 72.60
  Q 108.25 72.27 112.60 73.57
  Q 119.73 75.70 122.28 77.26
  Q 127.00 80.16 131.57 83.42
  C 134.14 85.26 135.22 87.01 136.99 89.32
  Q 143.98 98.46 147.51 109.21
  C 149.52 115.32 149.18 120.94 149.09 127.75
  C 149.04 131.22 148.36 134.57 146.78 137.66
  C 145.56 140.05 144.91 142.65 143.67 145.03
  Q 136.40 158.90 123.13 166.69
  Q 119.96 168.54 113.90 170.53
  Q 106.58 172.93 104.27 173.24
  Q 104.17 173.25 96.16 173.38
  Q 92.21 173.45 88.22 172.11
  Z"
/>
<path fill="#0361f9" d="
  M 366.42 112.64
  Q 366.63 110.22 368.58 104.51
  C 370.53 98.78 374.18 94.00 378.06 88.81
  Q 378.83 87.77 383.26 83.50
  C 387.35 79.56 393.19 76.88 397.74 74.74
  C 402.75 72.38 406.84 72.65 413.11 72.63
  Q 421.37 72.59 425.00 72.68
  C 432.76 72.88 440.81 77.45 446.60 82.46
  C 449.86 85.28 455.16 90.33 457.86 94.83
  C 465.20 107.07 470.01 120.50 465.46 134.55
  Q 463.09 141.87 458.70 149.71
  Q 456.50 153.64 454.08 156.08
  C 450.58 159.61 448.05 162.61 445.06 164.71
  Q 438.29 169.46 430.61 172.12
  C 423.65 174.54 414.03 173.88 407.11 173.11
  Q 396.92 171.97 387.10 164.95
  Q 380.66 160.35 378.48 157.62
  Q 373.24 151.06 369.74 144.62
  C 367.36 140.25 366.24 136.42 366.20 131.18
  Q 366.08 116.62 366.42 112.64
  Z"
/>
<path fill="#0c52e9" d="
  M 246.54 351.47
  C 245.13 329.84 241.48 310.63 236.55 289.21
  Q 227.22 248.66 217.75 208.16
  Q 212.74 186.69 205.58 171.79
  Q 212.90 167.69 221.05 165.75
  Q 227.51 164.21 237.56 164.25
  Q 271.34 164.39 290.75 164.36
  Q 293.55 164.35 296.82 165.42
  Q 300.61 166.65 306.06 168.46
  C 319.93 173.08 330.02 181.30 340.96 189.54
  Q 343.64 191.56 346.59 195.42
  Q 349.55 199.30 356.57 208.94
  C 360.48 214.32 361.88 219.54 364.76 226.45
  Q 367.89 233.94 369.94 244.20
  C 370.87 248.82 370.81 255.22 370.80 258.75
  C 370.61 296.86 370.74 331.21 370.72 368.39
  Q 370.72 370.30 368.71 372.97
  Q 365.03 377.85 359.98 380.91
  A 1.56 1.56 0.0 0 1 357.64 379.89
  Q 356.92 376.37 355.09 373.53
  A 5.30 4.82 -87.3 0 0 354.33 372.61
  Q 350.03 368.51 344.76 363.02
  C 341.09 359.22 335.02 357.68 330.41 355.61
  C 329.10 355.02 326.15 354.57 324.34 354.52
  C 306.03 354.00 286.94 354.85 266.76 354.17
  Q 262.77 354.03 256.65 352.91
  Q 251.63 351.98 246.54 351.47
  Z"
/>
<path fill="#1542d8" d="
  M 246.54 351.47
  Q 243.91 350.54 241.61 349.25
  A 5.77 5.41 67.4 0 0 240.72 348.85
  C 234.19 346.51 228.77 345.04 222.52 341.92
  Q 198.02 329.66 188.71 325.00
  A 16.14 15.85 64.9 0 0 185.40 323.77
  Q 173.86 320.90 161.89 317.87
  Q 154.85 316.09 147.24 316.27
  A 0.53 0.53 0.0 0 1 146.70 315.74
  Q 146.83 302.77 146.68 252.24
  Q 146.64 241.16 149.63 235.16
  A 5.55 5.30 -26.6 0 0 150.04 234.02
  Q 151.84 226.38 152.42 224.89
  C 156.26 215.05 162.49 205.36 171.16 196.90
  Q 173.45 194.66 184.18 183.96
  C 186.05 182.10 188.85 180.08 190.98 179.12
  Q 192.31 178.52 196.39 175.90
  Q 199.78 173.72 205.58 171.79
  Q 212.74 186.69 217.75 208.16
  Q 227.22 248.66 236.55 289.21
  C 241.48 310.63 245.13 329.84 246.54 351.47
  Z"
/>
<path fill="#0361f9" d="
  M 493.24 334.01
  A 1.42 1.41 -60.7 0 1 491.20 334.59
  C 485.18 330.74 477.46 326.13 470.25 325.48
  Q 460.04 324.56 450.26 325.46
  C 443.70 326.06 437.57 329.65 431.09 333.58
  Q 430.15 334.15 403.95 351.69
  Q 399.43 354.71 394.14 357.30
  A 1.51 1.50 -51.8 0 1 393.16 357.42
  C 390.62 356.90 390.88 354.13 390.87 351.75
  Q 390.86 309.29 390.97 270.25
  C 391.00 260.57 391.01 248.62 389.06 238.67
  Q 387.34 229.92 385.09 221.93
  C 383.11 214.95 379.83 209.19 375.57 202.61
  Q 372.75 198.26 377.43 195.63
  Q 384.75 191.53 395.38 188.75
  Q 404.60 186.35 414.41 186.49
  Q 427.26 186.67 439.75 190.02
  Q 440.63 190.25 445.24 192.50
  Q 446.83 193.28 450.74 194.93
  Q 460.30 198.99 465.44 204.08
  Q 473.36 211.91 476.58 215.17
  Q 478.91 217.51 483.69 224.98
  Q 485.53 227.84 487.34 232.74
  Q 488.56 236.03 490.46 240.74
  Q 492.08 244.73 493.11 250.65
  Q 493.89 255.18 493.91 260.91
  Q 493.96 284.26 493.90 330.76
  Q 493.90 332.62 493.24 334.01
  Z"
/>
<path fill="#1b37cc" d="
  M 124.74 315.25
  L 121.26 316.07
  A 10.26 10.26 0.0 0 1 119.01 316.34
  Q 115.25 316.38 113.62 316.83
  Q 107.51 318.53 101.37 318.80
  Q 99.37 318.89 94.57 321.21
  A 12.36 9.81 -18.3 0 1 92.95 321.86
  Q 92.52 322.01 82.05 324.76
  C 78.81 325.61 74.18 328.18 70.47 329.41
  Q 60.09 332.88 54.27 333.74
  Q 49.52 334.44 45.08 335.19
  C 36.62 336.60 27.29 336.61 19.77 336.67
  A 0.62 0.61 0.0 0 1 19.15 336.06
  L 19.09 257.18
  A 1.93 1.74 -42.0 0 1 19.13 256.80
  L 22.55 239.74
  A 5.06 4.86 62.3 0 1 22.77 238.98
  L 25.25 232.45
  A 4.70 4.33 -20.8 0 1 25.69 231.57
  Q 32.50 221.19 36.52 215.53
  Q 37.95 213.51 43.53 208.03
  Q 47.23 204.40 51.49 201.54
  C 59.91 195.91 68.95 191.42 78.65 189.08
  Q 86.73 187.14 86.77 187.12
  A 5.30 5.28 33.3 0 1 88.86 186.69
  L 110.86 186.65
  A 2.35 2.33 -35.7 0 1 111.60 186.77
  Q 116.24 188.24 123.91 189.36
  Q 126.52 189.74 129.65 191.48
  A 7.04 6.91 68.2 0 0 130.88 192.02
  Q 135.31 193.52 140.05 196.15
  A 2.42 2.42 0.0 0 1 141.30 198.30
  L 141.23 202.12
  A 1.99 1.95 65.0 0 1 140.81 203.31
  Q 140.77 203.36 136.90 210.79
  Q 135.08 214.29 133.62 218.48
  Q 130.15 228.46 129.93 228.93
  Q 128.39 232.37 128.20 232.80
  C 126.53 236.54 126.57 242.01 126.58 245.93
  Q 126.70 292.08 126.62 308.01
  Q 126.61 310.68 125.37 314.66
  A 0.88 0.86 -87.4 0 1 124.74 315.25
  Z"
/>
<path fill="#1542d8" d="
  M 309.01 436.86
  L 323.52 497.13
  Q 316.43 499.46 309.28 501.96
  Q 305.01 503.46 302.26 503.87
  Q 295.97 504.82 294.64 505.20
  A 12.95 10.78 0.8 0 0 292.95 505.78
  Q 289.12 507.39 285.19 508.19
  Q 284.28 508.37 272.07 510.53
  Q 268.98 511.08 256.26 511.01
  Q 245.41 510.96 239.59 509.47
  Q 229.84 506.97 227.57 506.75
  Q 220.75 506.09 218.01 505.18
  C 213.88 503.81 209.37 502.50 205.85 500.99
  Q 197.95 497.61 192.65 495.97
  C 183.21 493.05 173.51 487.01 165.51 483.52
  C 162.87 482.36 157.95 480.68 154.76 479.09
  Q 147.78 475.61 140.81 472.16
  Q 136.28 445.73 130.16 419.62
  Q 120.55 378.57 111.65 336.80
  Q 131.51 336.08 151.14 336.56
  Q 157.19 336.70 160.81 337.65
  Q 169.70 339.98 170.23 340.13
  Q 174.38 341.31 181.39 344.80
  C 185.97 347.07 189.79 347.91 194.46 350.23
  Q 203.54 354.73 221.96 363.95
  A 8.32 7.90 63.4 0 0 223.81 364.62
  Q 230.11 366.07 237.60 368.57
  Q 242.47 370.19 257.23 373.15
  Q 264.15 374.53 269.90 374.42
  Q 271.62 374.38 287.00 374.38
  Q 312.39 374.36 320.75 374.65
  C 323.35 374.74 326.61 375.44 328.88 377.04
  C 333.62 380.40 338.68 384.50 339.27 390.00
  C 339.78 394.88 339.83 401.20 337.45 405.40
  Q 335.39 409.02 331.77 412.26
  C 327.44 416.13 323.26 417.04 317.02 417.04
  Q 274.82 417.05 236.50 417.17
  C 231.31 417.18 222.67 417.22 216.25 415.94
  Q 207.40 414.17 201.91 412.87
  C 199.78 412.37 196.74 412.23 195.23 412.45
  A 1.94 1.94 0.0 0 0 193.60 414.61
  Q 193.97 417.37 196.07 419.27
  A 2.33 1.99 -8.3 0 0 196.64 419.63
  C 200.75 421.42 204.57 423.63 209.29 425.42
  Q 215.17 427.66 220.84 430.38
  Q 227.56 433.60 232.78 434.46
  Q 238.58 435.41 243.31 436.49
  A 7.21 7.20 51.4 0 0 244.91 436.67
  L 309.01 436.86
  Z"
/>
<path fill="#1b37cc" d="
  M 111.65 336.80
  Q 120.55 378.57 130.16 419.62
  Q 136.28 445.73 140.81 472.16
  C 137.00 470.77 133.05 469.47 129.51 467.67
  C 120.05 462.88 113.93 459.42 105.76 456.48
  Q 102.74 455.39 91.22 450.68
  C 86.22 448.64 81.31 447.99 77.49 446.49
  C 71.58 444.18 65.69 443.64 59.35 442.24
  A 25.11 24.94 51.3 0 0 54.09 441.64
  Q 30.06 441.47 28.32 441.39
  C 25.84 441.28 21.79 440.43 20.64 437.63
  C 18.85 433.25 19.12 429.84 19.11 425.10
  Q 19.06 405.86 19.19 357.12
  A 0.50 0.49 -88.8 0 1 19.69 356.63
  Q 37.11 356.93 50.32 355.86
  Q 52.70 355.67 55.81 353.88
  A 5.44 5.42 21.9 0 1 56.99 353.38
  C 61.39 352.16 65.85 351.20 70.55 349.57
  Q 73.99 348.38 95.89 341.08
  Q 99.40 339.90 103.73 338.81
  Q 107.75 337.79 111.65 336.80
  Z"
/>
<path fill="#0c52e9" d="
  M 323.52 497.13
  L 309.01 436.86
  Q 323.66 435.07 336.83 428.36
  Q 337.93 427.80 341.95 424.53
  A 7.19 7.04 88.1 0 0 343.38 422.97
  Q 345.09 420.46 349.07 415.10
  Q 349.93 413.95 355.68 408.65
  Q 357.49 406.98 363.21 403.31
  C 368.42 399.97 373.38 395.57 378.63 392.31
  Q 379.14 391.99 390.85 384.20
  C 397.02 380.09 401.86 376.12 407.55 372.30
  Q 427.77 358.72 431.37 356.67
  Q 432.97 355.76 434.18 355.08
  Q 436.05 354.04 436.94 353.44
  Q 445.22 347.91 453.44 344.48
  C 461.80 341.00 470.34 344.87 477.06 349.87
  A 6.31 6.10 89.6 0 1 478.41 351.25
  Q 483.63 358.69 484.92 365.39
  C 485.68 369.34 482.64 375.26 480.37 379.07
  Q 478.66 381.97 475.10 385.52
  Q 470.41 390.19 462.30 398.23
  C 457.60 402.90 452.91 405.32 448.42 409.85
  C 443.51 414.82 439.96 416.73 434.50 421.62
  Q 429.26 426.31 428.50 426.87
  C 425.78 428.84 422.71 430.91 420.23 433.51
  Q 414.95 439.05 407.25 444.42
  A 8.94 8.43 -83.5 0 0 406.02 445.46
  C 403.66 447.86 400.42 451.39 397.58 453.36
  Q 392.47 456.92 390.12 459.21
  Q 385.38 463.85 382.19 466.02
  C 378.10 468.79 375.41 471.41 370.72 474.01
  C 362.94 478.32 354.04 485.44 344.33 489.29
  Q 340.31 490.89 328.46 495.34
  Q 326.08 496.23 323.52 497.13
  Z"
/>
</svg>
